<svg xmlns="http://www.w3.org/2000/svg" xmlns:xlink="http://www.w3.org/1999/xlink" version="1.1" x="0px" y="0px" viewBox="0 0 110 128.75" enable-background="new 0 0 110 103" xml:space="preserve"><path d="M99.214,9.041c-2.453-1.211-5.786-2.12-10.194-2.777C81.551,5.15,72.588,5,64.807,5l-1.01,0.001  c-8.556,0-17.759,0.821-24.618,2.197c-9.987,2.003-14.915,5.078-15.067,9.399c-0.059,1.716,0.592,3.331,1.885,4.67  c4.29,4.441,16.356,6.509,37.979,6.509c3.227,0,14.541-0.145,24.595-2.011c10.636-1.974,15.808-5.19,15.81-9.833  C104.381,13.954,103.485,11.151,99.214,9.041z M61.25,26.416c-25.355,0-31.542-4.125-31.793-4.302  c-0.27-0.189-0.337-0.563-0.146-0.834c0.188-0.271,0.561-0.336,0.831-0.149c0.021,0.015,0.498,0.321,1.674,0.761  c0,0,3.641,1.295,10.565,2.353c5.39,0.824,13.952,0.917,13.952,0.917c1.552,0.036,3.189,0.056,4.917,0.056  c0.331,0,0.599,0.269,0.599,0.599S61.581,26.416,61.25,26.416z M63.87,26.416c-0.372,0-0.674-0.301-0.674-0.674  c0-0.372,0.302-0.674,0.674-0.674c0.372,0,0.673,0.302,0.673,0.674C64.543,26.114,64.242,26.416,63.87,26.416z M87.698,21.055  c-6.514,1.209-15.383,1.93-23.722,1.93c-25.805,0-32.711-3.161-34.531-5.046c-0.5-0.517-0.553-0.899-0.544-1.173  c0.026-0.733,2.091-3.037,11.222-4.868c6.565-1.318,15.417-2.104,23.677-2.104l1.008-0.001c7.606,0,16.348,0.144,23.506,1.211  c3.852,0.575,6.805,1.36,8.778,2.334c1.656,0.818,2.497,1.691,2.497,2.594C99.588,17.015,97.084,19.314,87.698,21.055z"/><path d="M88.844,28.579c-10.179,1.888-21.608,2.035-24.868,2.035c-10.997,0-19.417-0.527-25.741-1.611  c-3.94-0.675-7.083-1.576-9.484-2.724l0.228,5.017c-0.359-0.035-0.716-0.063-1.076-0.09c-0.701-0.05-1.401-0.086-2.1-0.109  c-1.402-0.046-2.804-0.039-4.206,0.028c-1.4,0.068-2.802,0.199-4.193,0.418c-1.393,0.221-2.778,0.531-4.129,0.981  c-1.348,0.451-2.667,1.044-3.861,1.863c-1.19,0.813-2.247,1.878-2.958,3.149c-0.355,0.631-0.637,1.317-0.812,2  c-0.175,0.677-0.323,1.36-0.434,2.05c-0.18,1.073-0.239,2.164-0.194,3.241c-0.027,0.669-0.013,1.337,0.042,1.997  c-0.346,5.53,0.953,11.18,3.79,16.12c1.475,2.569,5.831,5.367,12.948,8.321c3.846,1.596,7.507,2.819,9.151,3.346L31,75.826  c0,0,1.348,8.984,3.444,10.633c2.097,1.646,8.086,10.782,29.202,11.082c0,0,28.605,0.795,33.696-15.126  c1.522-4.759,1.647-7.038,1.647-7.038l1.655-50.554C97.879,26.388,94.007,27.621,88.844,28.579z M10.923,61.751  C7.404,55.626,6.464,48.321,8.34,41.71c1.218-4.291,7.001-5.373,11.635-5.525c3.767-0.124,7.413,0.336,9.253,0.621l1.404,30.918  c-6.195-2.08-14.009-5.271-15.872-8.28c-3.717-6.007-4.898-13.276-3.238-19.946c0.096-0.388,0.231-0.75,0.398-1.091  c-1.452,0.878-2.548,2.085-2.959,3.74c-0.257,1.033-0.446,2.083-0.569,3.138c-0.049,5.354,1.433,10.742,4.33,15.421  c1.558,2.519,6.004,5.172,13.214,7.891c1.691,0.638,3.344,1.205,4.811,1.683l0.081,1.783C24.787,70.081,13.143,65.616,10.923,61.751  z"/><g><path d="M282.791,14.082c0,8.436,6.301,15.3,14.164,15.562v0.004c0,0,13.668,1.667,18.828,7.382   c0.404,0.447,0.777,0.72,1.124,0.844c0.139,0.546,0.28,1.089,0.427,1.625c5.346,19.538,9.552,29.05,12.166,49.948   c1.001,8.02,15.289,9.82,24.338,10.151c0.537,0.023,1.803,0.067,3.537,0.066c1.734,0.001,3.001-0.043,3.538-0.066   c0.082-0.003,0.162-0.017,0.239-0.036c0.475-0.013,0.839-0.026,1.066-0.037c9.05-0.33,23.338-2.131,24.34-10.15   c2.611-20.9,6.819-30.411,12.165-49.948c5.345-19.537,5.161-45.71,5.161-45.71s-0.061-1.588-0.323-3.685   c0-1.883-2.265-2.537-6.723-3.143c-3.05-0.415-7.314-0.783-12.678-1.094c-9.347-0.543-20.04-0.787-24.649-0.787   c-4.449,0-15.786,0.28-25.987,0.878c-5.739,0.337-10.312,0.726-13.587,1.156c-4.211,0.553-6.501,1.108-7.028,2.491   c-0.249,0.091-0.375,0.273-0.413,0.57c-0.263,2.097-0.323,3.685-0.323,3.685s-0.002,0.352,0.002,0.996   c-2.531-0.014-5.061,0.004-7.591,0.048c-2.905,0.058-5.81,0.144-8.721,0.287c-0.729,0.04-1.457,0.083-2.188,0.133   c-0.735,0.054-1.457,0.106-2.228,0.207l-0.3,0.047c-0.109,0.02-0.211,0.037-0.371,0.084l-0.25,0.081l-0.255,0.078   c-0.347,0.105-0.708,0.215-1.066,0.34c-0.719,0.247-1.432,0.55-2.104,0.939c-1.352,0.761-2.531,1.883-3.284,3.228   c-0.764,1.341-1.108,2.847-1.163,4.314l0.274,0.037c0.331-1.402,0.868-2.734,1.687-3.835c0.814-1.104,1.904-1.942,3.129-2.511   c0.614-0.283,1.257-0.509,1.924-0.694c0.332-0.092,0.671-0.173,1.025-0.256l0.271-0.065l0.272-0.07l0.162-0.023l0.238-0.023   c0.673-0.052,1.4-0.067,2.115-0.08c0.718-0.012,1.439-0.016,2.161-0.016c1.443-0.006,2.893-0.004,4.34,0.008l4.345,0.021   c2.533,0.01,5.07,0.012,7.604,0.001c0.009,0.444,0.019,0.928,0.032,1.449c-0.081-0.002-0.154-0.007-0.237-0.007h-18.886   C285.034-1.493,282.791,5.48,282.791,14.082z M319.718-9.859c2.881-0.402,7.67-0.875,15.62-1.311   c9.809-0.538,20.042-0.781,24.174-0.781c3.865,0,13.492,0.188,22.876,0.692c8.471,0.455,13.085,0.975,15.592,1.392   c-2.812,0.508-8.36,1.135-19.291,1.556c-9.942,0.385-19.548,0.414-19.993,0.416C343.634-8.178,327.398-8.931,319.718-9.859z    M290.221,13.897c0-5.039,1.153-9.124,5.307-9.124h9.71c4.153,0,3.366,4.085,3.366,9.124c0,5.039-3.366,9.124-7.521,9.124h-3.341   C293.588,23.021,290.221,18.936,290.221,13.897z"/><path d="M296.646,21.931c-0.43-0.084-0.851-0.212-1.252-0.378c-0.806-0.33-1.522-0.822-2.118-1.402   c-1.191-1.169-1.942-2.62-2.345-4.14l0.264-0.085c0.316,0.677,0.736,1.317,1.204,1.889c0.466,0.576,0.999,1.083,1.582,1.48   c0.588,0.397,1.225,0.68,1.88,0.822c0.327,0.072,0.659,0.111,0.99,0.117c0.337,0.01,0.64-0.027,1.046-0.057l4.601-0.362   c1.102-0.09,2.203-0.172,3.303-0.252c-0.996,1.462-2.392,2.214-3.976,2.55l-3.928-0.033   C297.537,22.053,297.069,22.021,296.646,21.931z"/></g><path d="M428.85,55.206c10.667,11.47,31.443,16.933,39.322,17.744c4.296,5.265,8.163,7.129,9.709,7.696  c-0.21,1.343,0.402,2.738,1.652,3.456c0.506,0.29,12.578,7.107,29.608,7.107c17.045,0,28.921-6.831,29.418-7.122  c1.24-0.725,1.843-2.117,1.628-3.454c2.001-0.741,7.734-3.6,13.311-12.893c5.046-8.408,6.872-22.446,6.872-22.446  c1.771-10.175,2.519-27.96,2.729-33.913c0.114-0.387,0.172-0.789,0.172-1.206c0-2.435-2.096-4.437-6.405-6.119  c-3.269-1.277-7.864-2.399-13.663-3.339c-9.787-1.585-22.798-2.571-33.954-2.571c-7.869,0-21.164,0.567-32.733,2.163  c-19.271,2.66-21.501,6.537-21.501,9.221c0,0.012,0,0.024,0,0.037c-0.045-0.065-0.096-0.127-0.14-0.193c0,0,0.034,1.277,0.115,3.39  c0,0,0,0,0,0c-0.067,2.061-2.25,2.397-4.056,2.32c-0.608-0.082-1.229-0.153-1.861-0.211c-0.326-0.06-0.526-0.108-0.526-0.108  l0.016,0.064c-5.435-0.438-11.617,0.132-16.803,3.388c-4.067,2.555-9.081,7.861-9.864,18.636  C421.409,43.547,423.75,49.722,428.85,55.206z M460.39,9.404c0.182-0.324,2.126-2.79,19.802-4.747  c10.406-1.152,22.348-1.677,29.037-1.677c6.944,0,18.884,0.458,29.678,1.748c16.327,1.951,18.008,4.429,18.132,4.666  c-0.074,0.258-1.425,3.22-21.872,4.852c-11.9,0.95-24.362,0.978-25.744,0.978h-0.188c-0.018,0-0.303,0.001-0.823,0.001h-0.002  c-3.469,0-15.673-0.074-27.124-1.028C461.984,12.587,460.492,9.717,460.39,9.404z M432.5,37.625  c0.373-5.149,1.975-8.548,4.898-10.392c5.053-3.187,13.516-1.672,18.335-0.241c0.433,6.396,1.059,13.278,1.933,18.303  c0,0,0.746,5.718,2.595,12.041c0.007,0.155,0.067,0.376,0.205,0.689c0,0.001,0.002,0.003,0.002,0.004  c0.126,0.414,0.255,0.83,0.392,1.246c0.13,0.948-0.4,1.143-0.742,1.171c-7.698-2.222-17.771-6.341-23.481-12.481  C433.586,44.686,432.232,41.303,432.5,37.625z"/><path d="M585.474,33.923c0,16.895,6.335,28.472,21.118,32.069c7.216,1.756,11.943-1.367,14.603-2.532c0,12.551,0,21.933,0,21.933  s-0.625,5.162,2.736,7.039c3.365,1.877,12.594,9.619,40.36,9.619c0.662,0,1.297-0.057,1.899-0.167  c26.42-0.313,35.337-7.771,38.629-9.61c3.364-1.876,2.738-7.037,2.738-7.037s0-86.581,0-90.102c0-3.519-4.3-6.101-4.3-6.101  s0.021,0.024,0.063,0.07c-2.176-1.419-5.501-2.655-9.966-3.693c-7.735-1.799-17.997-2.789-28.892-2.789  c-10.897,0-21.156,0.99-28.892,2.789c-4.878,1.134-8.396,2.502-10.542,4.09c-1.11,0.782-3.836,2.988-3.836,5.791  c0,0.628,0,3.897,0,8.844c-3.966-1.107-9.046-1.886-14.993-1.42C591.206,3.888,585.474,21.643,585.474,33.923z M636.28-1.316  c-8.394-1.952-10.61-4.198-10.61-5.113c0-0.915,2.217-3.161,10.61-5.113c7.509-1.747,17.519-2.708,28.184-2.708  c10.663,0,20.673,0.962,28.182,2.708c8.394,1.952,10.612,4.198,10.612,5.113c0,0.915-2.219,3.162-10.612,5.113  c-7.509,1.747-17.519,2.708-28.182,2.708C653.799,1.392,643.789,0.43,636.28-1.316z M592.825,32.985  c0.704-19.242,10.639-21.041,14.861-21.354c4.224-0.312,7.681,2.857,9.621,4.851c0.953,0.978,2.295,3.52,3.598,4.458  c0.107,0.077,0.202,0.143,0.289,0.2c0,8.498,0,18.107,0,27.258c-0.484,0.452-1.278,1.486-2.558,3.751  c-2.67,4.729-8.918,4.965-11.262,4.85C604.74,56.867,592.121,52.226,592.825,32.985z"/><path d="M885.986,24.229c0,20.24,19.547,36.101,33.82,47.681c2.11,1.713,4.115,3.34,5.882,4.843  c5.399,19.98,23.045,26.731,52.8,27.342c0.468,0.03,0.948,0.046,1.438,0.046c0.54,0,1.078-0.002,1.611-0.006  c0.531,0.004,1.068,0.006,1.608,0.006c0.493,0,0.971-0.016,1.438-0.046c37.159-0.762,55.436-11.101,54.555-44.821  c-0.815-31.273-8.657-57.942-10.357-63.387l0.158-0.186c0.663-0.773,1.179-2.23,0.458-3.799c-1.037-2.254-4.26-3.748-10.451-4.841  c-7.706-1.362-19.896-2.053-36.231-2.053c-16.974,0-29.763,0.743-38.012,2.209c-8.076,1.435-10.13,3.301-10.975,4.58  c-0.681,1.031-0.831,2.241-0.403,3.237l0.085,0.2l0.117,0.182c0.148,0.232,0.356,0.483,0.68,0.744  c-0.119,0.388-0.263,0.859-0.429,1.411v0c-0.267,0.886-1.502,0.797-1.929,0.738c-3.867-1.858-9.747-3.752-18.137-4.26  c-5.213-0.316-12.929,1.366-18.949,7.034c-2.73,2.569-4.861,5.723-6.335,9.375C886.808,14.475,885.986,19.108,885.986,24.229z   M1021.461-7.092c-8.432,2.076-18.948,2.783-38.441,2.783c-24.985,0-36.49-1.369-41.645-2.421c1.244-0.354,2.934-0.739,5.211-1.11  c7.992-1.303,20.147-1.963,36.13-1.963c14.86,0,26.192,0.573,33.682,1.704C1018.603-7.766,1020.245-7.416,1021.461-7.092z   M894.533,24.229c0-7.427,2.048-13.121,6.088-16.923c4.043-3.807,9.302-4.923,12.577-4.727c10.582,0.641,16.04,3.831,17.854,5.132  c-2.892,11.827-6.573,30.667-7.119,51.562c-0.005,0.237-0.011,0.472-0.016,0.706c0,0.002,0,0.003,0,0.005  c-0.077,2.734-2.389,2.138-2.389,2.138l0.093,0.243C909.225,52.19,894.533,38.953,894.533,24.229z"/><g><path d="M1322.356,16.252c0,0-1.565-4.699-1.565-8.614c0-3.916-6.656-6.265-6.656-6.265l-2.349-8.223   c-3.441-8.133-27.028-10.018-37.316-10.448c-0.09-0.079-0.141-0.124-0.141-0.124s-0.739,0.008-2.024,0.046   c-1.282-0.039-2.021-0.046-2.021-0.046s-0.052,0.044-0.142,0.124c-10.288,0.43-34.656,2.314-38.099,10.448l-1.565,8.223   c0,0-6.657,2.349-6.657,6.265c0,3.915-1.564,8.614-1.564,8.614s-2.495,13.106,44.958,14.172c0.987,0.037,4.425,0.067,5.091,0.064   c0.669,0.002,1.34,0.005,2.024,0.003c1.07-0.003,2.082-0.03,3.069-0.067C1324.852,29.358,1322.356,16.252,1322.356,16.252z    M1241.062-8.557c0.217-0.234,5.614-5.731,31.064-5.731c25.393,0,32.185,5.433,32.461,5.664c0.332,0.278,0.376,0.771,0.1,1.103   c-0.154,0.185-0.378,0.281-0.601,0.281c-0.177,0-0.353-0.06-0.499-0.179c-0.065-0.053-6.81-5.302-31.461-5.302   c-24.509,0-29.873,5.186-29.924,5.239c-0.301,0.306-0.792,0.318-1.104,0.022C1240.789-7.756,1240.771-8.242,1241.062-8.557z    M1272.886,0.341c-2.256,0.073-4.4-0.097-7.308-0.57c-0.749-0.122-1.259-0.829-1.137-1.577c0.121-0.751,0.822-1.261,1.577-1.136   c4.82,0.784,7.286,0.687,12.247-0.005c0.756-0.103,1.445,0.419,1.552,1.171c0.104,0.753-0.422,1.445-1.173,1.552   C1276.4,0.088,1274.61,0.285,1272.886,0.341z M1275.229,10.378c0,0.227-0.184,0.41-0.41,0.41c-0.224,0-0.408-0.183-0.408-0.41   c0-0.226,0.185-0.409,0.408-0.409C1275.045,9.969,1275.229,10.152,1275.229,10.378z M1232.645,2.202   c0.19-0.101,0.425-0.029,0.526,0.16c0.057,0.098,4.698,7.625,39.789,7.625c0.216,0,0.39,0.175,0.39,0.392   c0,0.217-0.174,0.392-0.39,0.392c-35.847,0-40.309-7.713-40.481-8.041C1232.379,2.539,1232.453,2.302,1232.645,2.202z    M1239.917,14.501c-0.109,0.329-0.416,0.537-0.743,0.537c-0.082,0-0.165-0.013-0.246-0.04c-10.384-3.441-12.767-7.792-12.863-7.975   c-0.202-0.383-0.053-0.856,0.329-1.058c0.382-0.197,0.852-0.055,1.056,0.325c0.039,0.072,2.323,4.025,11.971,7.222   C1239.831,13.648,1240.054,14.091,1239.917,14.501z M1242.419,16.154c-0.485,0-0.881-0.395-0.881-0.881s0.396-0.881,0.881-0.881   c0.486,0,0.881,0.395,0.881,0.881S1242.905,16.154,1242.419,16.154z M1317.521,6.864c-0.23,0.503-6.143,12.325-45.395,12.325   c-6.254,0-12.065-0.303-17.276-0.9c-3.313-0.379-6.443-0.886-9.304-1.505c-0.421-0.091-0.689-0.508-0.599-0.931   c0.092-0.422,0.509-0.688,0.933-0.599c2.808,0.608,5.886,1.106,9.148,1.48c5.151,0.591,10.903,0.89,17.098,0.89   c38.26,0,43.92-11.301,43.973-11.415c0.183-0.394,0.647-0.563,1.041-0.383C1317.532,6.006,1317.703,6.472,1317.521,6.864z"/><path d="M1229.023,24.117"/><path d="M1272.074,32.06c-0.294,0-0.584-0.001-0.882-0.002c-23.942-0.083-35.527-3.356-40.285-5.284l8.967,64.26   c0,0,3.487,11.853,23.36,15.185c1.79,0.558,3.996,0.869,6.702,0.869c0.751,0,1.477-0.018,2.196-0.037   c0.72,0.02,1.444,0.037,2.196,0.037c2.705,0,4.912-0.312,6.7-0.869c19.873-3.332,23.361-15.185,23.361-15.185l8.963-64.242   C1308.155,28.718,1295.727,32.06,1272.074,32.06z"/></g><g><path d="M723.514,66.954c1.73,8.337,11.781,8.654,11.781,8.654s20.193-0.481,21.154-0.842c0.962-0.36,2.457-0.103,4.896,2.052   c1.602,6.385,6.511,15.608,22.485,19.958c4.379,3.008,13.571,6.209,30.135,6.209c23.999,0,27.95-6.062,28.257-6.604   c24.497-6.735,22.828-24.968,23.285-26.568c0.542-1.894,1.5-49.49,1.5-49.49c-0.019,0.014-0.037,0.026-0.057,0.04   c-0.007-0.093-0.016-0.182-0.028-0.264c-0.369-2.448-2.907-4.257-7.988-5.691c-3.675-1.037-8.763-1.89-15.129-2.534   c-9.795-0.991-20.26-1.27-26.247-1.344c-2.098-0.088-3.903-0.133-5.296-0.133c-3.895,0-17.571,0.099-30.141,1.37   c-6.366,0.645-11.456,1.497-15.129,2.533c-5.082,1.435-7.62,3.243-7.989,5.692c-0.032,0.212-0.046,0.462-0.02,0.737   c-0.021-0.015-0.044-0.029-0.065-0.045c0,0,0.03,1.445,0.08,3.839c-4.433-0.258-15.529-1.082-22.26,0   c-5.195,0.835-8.927,3.061-9.655,3.791c1.594-0.676,4.852-1.433,6.356-1.628c0.547-0.072,1.062-0.139,1.554-0.223   c1.316-0.226,4.002-0.336,8.207-0.336l0,0c6.975,0,15.672,0.318,15.758,0.321l0.081,0.003c0.009,0.347,0.016,0.706,0.024,1.077   c-0.886-0.032-19.779-0.703-23.889,0.001c-4.206,0.722-11.781,0.298-13.103,9.376C721.112,43.516,722.259,60.89,723.514,66.954z    M863.699,20.521c-0.166,0.254-1.353,1.571-8.581,2.933c-4.625,0.871-10.886,1.608-18.609,2.188   c-8.194,0.616-16.322,0.926-21.345,1.071c-2.777-0.052-14.199-0.309-25.746-1.179c-7.725-0.582-13.988-1.317-18.611-2.188   c-7.229-1.361-8.414-2.678-8.58-2.933c0.164-0.569,1.901-3.563,20.221-5.417c9.291-0.939,19.207-1.231,25.229-1.318   c-0.007,0.08,4.455,0.072,5.988,0.072c0.841,0,2.145,0.004,3.796,0.024c0.266,0.012,0.534,0.024,0.81,0.036   c0-0.009,0-0.016-0.002-0.024c6.022,0.087,15.929,0.378,25.21,1.318C861.798,16.957,863.534,19.951,863.699,20.521z    M726.401,36.664c0.761-5.003,9.134-5.168,9.134-5.168s14.291-0.374,18.15,0.601c3.86,0.975,4.872,1.69,5.548,2.962   c0.183,7.965,0.426,17.682,0.665,24.881l0,0c0,0-3.108,0.96-4.05,6.414c-0.447,2.59-2.883,3.125-2.883,3.125   s-12.862,1.562-17.431,0.962c-4.566-0.603-6.73-1.203-8.053-6.251S725.559,42.193,726.401,36.664z"/><path d="M731.372,33.235c0.247-0.073,0.495-0.139,0.74-0.197c-3.267,7.645-1.721,21.495-1.624,25.142   c0.239,9.136,3.363,8.03,5.528,8.594c4.327,0.902,15.293-0.5,18.665-1.104c-0.432,1.354-0.814,2.486-1.917,2.743   c-0.848,0.102-9.233,1.082-14.461,1.082c-1.096,0-1.979-0.042-2.627-0.128c-2.367-0.311-3.758-0.596-4.781-1.282   c-1.085-0.727-1.792-1.975-2.368-4.17c-1.33-5.082-1.887-20.64-1.047-27.174C727.683,35.161,728.9,33.973,731.372,33.235z"/></g><path d="M1070.659,50.046c-0.012,8.461,4.054,15.587,11.764,20.611c7.468,4.866,16.915,6.885,23.523,7.722  c4.034,0.509,7.295,0.623,9.405,0.623c0.101,0,0.199,0,0.297-0.001c0.571-0.003,1.092-0.014,1.567-0.032  c0.135,0.125,0.271,0.253,0.408,0.375l-1.911,1.863c-1.672,2.08-3.596,8.387-3.596,11.612s5.992,14.269,33.506,14.269  c27.513,0,33.353-10.305,33.833-14.857c0.479-4.553-4.978-13.679-4.978-13.679l-0.002-0.001  c6.195-5.889,10.939-13.837,14.955-22.985c8.425-19.187,7.708-39.744,7.67-40.704c0.058-0.347,0.086-0.698,0.086-1.053  c0-2.708-1.66-5.178-4.938-7.34c-2.686-1.771-6.458-3.342-11.213-4.669c-9.491-2.648-22.069-4.106-35.413-4.106  c-13.346,0-25.923,1.458-35.412,4.106c-4.757,1.327-8.529,2.898-11.214,4.669c-3.279,2.163-4.94,4.632-4.94,7.34  c0,0.355,0.029,0.707,0.086,1.053c-0.018,0.431-0.171,4.812,0.428,11.245c-1.8-0.341-3.684-0.423-5.628-0.234  c-3.165,0.307-6.053,1.34-8.587,3.07c-2.251,1.539-4.175,3.598-5.717,6.12C1072.082,39.249,1070.668,44.57,1070.659,50.046z   M1170.467,81.088c0-0.398,0.323-0.722,0.721-0.722c0.398,0,0.722,0.323,0.722,0.722c0,0.397-0.323,0.72-0.722,0.72  C1170.79,81.808,1170.467,81.485,1170.467,81.088z M1120.401,80.118c0.271-0.188,0.643-0.123,0.834,0.146  c0.011,0.018,1.22,1.685,4.845,3.335c3.365,1.532,9.55,3.358,19.905,3.358c11.438,0,17.98-2.349,21.453-4.318  c0.288-0.163,0.655-0.061,0.817,0.227c0.163,0.288,0.062,0.653-0.226,0.816c-3.6,2.041-10.345,4.475-22.045,4.475  c-20.528,0-25.532-6.916-25.735-7.209C1120.063,80.677,1120.132,80.308,1120.401,80.118z M1111.497,21.202  c-8.736-2.438-12.648-5.47-12.648-7.393c0-1.923,3.912-4.955,12.648-7.393c9.084-2.535,21.204-3.93,34.126-3.93  c12.921,0,25.04,1.395,34.123,3.93c8.738,2.438,12.648,5.469,12.648,7.393c0,1.923-3.91,4.955-12.648,7.393  c-9.083,2.534-21.202,3.93-34.123,3.93C1132.701,25.131,1120.581,23.736,1111.497,21.202z M1080.246,50.062  c0.004-3.689,0.941-7.333,2.573-10c1.732-2.836,4.039-4.356,7.049-4.648c0.832-0.082,1.621-0.071,2.372,0.024  c0.781,0.262,1.508,0.758,1.816,1.675c0.512,1.522,1.762,3.525,3.158,4.787c1.104,4.444,2.592,9.094,4.598,13.666  c1.485,3.385,3.072,6.603,4.792,9.614c0,0.001,0,0.002,0,0.003c0.24,3.626-2.875,3.084-2.875,3.084l0.119,0.096  c-6.29-1.088-13.221-3.188-18.026-7.062C1082.062,58.27,1080.239,54.593,1080.246,50.062z"/><text x="0" y="118" fill="#000000" font-size="5px" font-weight="bold" font-family="'Helvetica Neue', Helvetica, Arial-Unicode, Arial, Sans-serif">Created by William Woods</text><text x="0" y="123" fill="#000000" font-size="5px" font-weight="bold" font-family="'Helvetica Neue', Helvetica, Arial-Unicode, Arial, Sans-serif">from the Noun Project</text></svg>