<svg xmlns="http://www.w3.org/2000/svg" xmlns:xlink="http://www.w3.org/1999/xlink" version="1.1" x="0px" y="0px" viewBox="0 0 110 135" enable-background="new 0 0 110 108" xml:space="preserve"><path d="M431.011-133.521c10.667,11.471,31.443,16.934,39.322,17.744c4.296,5.266,8.163,7.129,9.709,7.697  c-0.21,1.342,0.402,2.738,1.652,3.455c0.506,0.291,12.578,7.107,29.608,7.107c17.045,0,28.921-6.83,29.418-7.121  c1.24-0.725,1.843-2.117,1.628-3.455c2.001-0.74,7.734-3.6,13.311-12.893c5.046-8.408,6.872-22.445,6.872-22.445  c1.771-10.175,2.519-27.96,2.729-33.913c0.114-0.387,0.172-0.789,0.172-1.206c0-2.435-2.096-4.437-6.405-6.119  c-3.269-1.277-7.864-2.399-13.663-3.339c-9.787-1.585-22.798-2.571-33.954-2.571c-7.869,0-21.164,0.567-32.733,2.163  c-19.271,2.66-21.501,6.537-21.501,9.221c0,0.012,0,0.024,0,0.037c-0.045-0.065-0.096-0.127-0.14-0.193c0,0,0.034,1.277,0.115,3.39  c0,0,0,0,0,0c-0.067,2.061-2.25,2.397-4.056,2.32c-0.608-0.082-1.229-0.153-1.861-0.211c-0.326-0.06-0.526-0.108-0.526-0.108  l0.016,0.064c-5.435-0.438-11.617,0.132-16.803,3.388c-4.067,2.555-9.081,7.861-9.864,18.636  C423.57-145.179,425.911-139.005,431.011-133.521z M462.551-179.322c0.182-0.324,2.126-2.79,19.802-4.747  c10.406-1.152,22.348-1.677,29.037-1.677c6.944,0,18.884,0.458,29.678,1.748c16.327,1.951,18.008,4.429,18.132,4.666  c-0.074,0.258-1.425,3.22-21.872,4.852c-11.9,0.95-24.362,0.978-25.744,0.978h-0.188c-0.018,0-0.303,0.001-0.823,0.001h-0.002  c-3.469,0-15.673-0.074-27.124-1.028C464.146-176.139,462.653-179.009,462.551-179.322z M434.661-151.101  c0.373-5.149,1.975-8.548,4.898-10.392c5.053-3.187,13.516-1.672,18.335-0.241c0.433,6.396,1.059,13.277,1.933,18.303  c0,0,0.746,5.719,2.595,12.041c0.007,0.154,0.067,0.375,0.205,0.689c0,0,0.002,0.002,0.002,0.004  c0.126,0.414,0.255,0.83,0.392,1.246c0.13,0.947-0.4,1.143-0.742,1.17c-7.698-2.221-17.771-6.34-23.481-12.48  C435.747-144.04,434.394-147.423,434.661-151.101z"/><path d="M5.146,46.716c0,13.782,5.168,23.228,17.228,26.163c5.887,1.432,9.743-1.115,11.913-2.067c0,10.239,0,17.894,0,17.894  s-0.51,4.211,2.232,5.742c2.745,1.531,10.274,7.848,32.925,7.848c0.541,0,1.058-0.046,1.55-0.137  c21.553-0.255,28.828-6.339,31.513-7.84c2.744-1.531,2.233-5.74,2.233-5.74s0-70.633,0-73.505c0-2.871-3.508-4.977-3.508-4.977  s0.018,0.02,0.052,0.057c-1.774-1.158-4.487-2.166-8.129-3.013c-6.311-1.468-14.682-2.275-23.57-2.275  c-8.89,0-17.259,0.808-23.569,2.275c-3.979,0.925-6.85,2.041-8.6,3.336c-0.906,0.638-3.129,2.438-3.129,4.724  c0,0.513,0,3.179,0,7.215c-3.235-0.903-7.379-1.539-12.231-1.159C9.823,22.214,5.146,36.698,5.146,46.716z M46.594,17.968  c-6.848-1.592-8.656-3.425-8.656-4.171c0-0.746,1.808-2.579,8.656-4.171c6.125-1.425,14.292-2.209,22.992-2.209  c8.699,0,16.865,0.785,22.99,2.209c6.848,1.592,8.657,3.425,8.657,4.171c0,0.747-1.81,2.58-8.657,4.171  c-6.125,1.425-14.292,2.209-22.99,2.209C60.886,20.178,52.72,19.393,46.594,17.968z M11.144,45.951  c0.574-15.697,8.679-17.165,12.124-17.42c3.446-0.255,6.266,2.331,7.849,3.956c0.778,0.798,1.873,2.871,2.935,3.637  c0.088,0.063,0.165,0.117,0.236,0.164c0,6.933,0,14.772,0,22.237c-0.395,0.368-1.043,1.211-2.086,3.059  c-2.178,3.857-7.275,4.051-9.187,3.957C20.864,65.435,10.569,61.647,11.144,45.951z"/><path d="M603.888-346.893c0,13.325,12.868,23.768,22.267,31.392c1.389,1.127,2.709,2.198,3.871,3.188  c3.555,13.154,15.172,17.6,34.762,18.001c0.309,0.02,0.625,0.03,0.947,0.03c0.355,0,0.709-0.001,1.061-0.004  c0.35,0.003,0.703,0.004,1.059,0.004c0.325,0,0.64-0.011,0.947-0.03c24.465-0.501,36.496-7.308,35.917-29.509  c-0.537-20.588-5.7-38.146-6.819-41.731l0.104-0.122c0.438-0.509,0.777-1.468,0.303-2.501c-0.684-1.484-2.805-2.467-6.881-3.187  c-5.074-0.897-13.1-1.352-23.854-1.352c-11.175,0-19.595,0.489-25.025,1.454c-5.316,0.945-6.669,2.173-7.225,3.015  c-0.449,0.679-0.548,1.476-0.266,2.131l0.056,0.131l0.077,0.12c0.098,0.153,0.234,0.318,0.447,0.49  c-0.078,0.255-0.173,0.565-0.282,0.929v0c-0.175,0.583-0.989,0.524-1.27,0.486c-2.546-1.223-6.417-2.47-11.94-2.805  c-3.432-0.208-8.512,0.899-12.476,4.631c-1.798,1.691-3.2,3.768-4.171,6.172C604.428-353.315,603.888-350.265,603.888-346.893z   M693.078-367.514c-5.551,1.367-12.475,1.833-25.308,1.833c-16.45,0-24.024-0.901-27.417-1.594c0.818-0.233,1.932-0.487,3.431-0.731  c5.262-0.858,13.265-1.292,23.786-1.292c9.783,0,17.244,0.377,22.175,1.122C691.197-367.958,692.277-367.727,693.078-367.514z   M609.515-346.893c0-4.889,1.349-8.638,4.008-11.142c2.662-2.506,6.124-3.241,8.28-3.112c6.967,0.422,10.561,2.522,11.755,3.379  c-1.903,7.787-4.327,20.19-4.687,33.946c-0.004,0.156-0.008,0.311-0.011,0.465c0,0.002,0,0.002,0,0.004  c-0.051,1.8-1.573,1.407-1.573,1.407l0.062,0.16C619.188-328.485,609.515-337.2,609.515-346.893z"/><rect x="43" y="-58" opacity="0.67" fill="#000000" width="50" height="5"/><rect x="35" y="-90" opacity="0.67" fill="#000000" width="5" height="50"/><text x="0" y="123" fill="#000000" font-size="5px" font-weight="bold" font-family="'Helvetica Neue', Helvetica, Arial-Unicode, Arial, Sans-serif">Created by William Woods</text><text x="0" y="128" fill="#000000" font-size="5px" font-weight="bold" font-family="'Helvetica Neue', Helvetica, Arial-Unicode, Arial, Sans-serif">from the Noun Project</text></svg>