<svg xmlns:dc="http://purl.org/dc/elements/1.1/" xmlns:cc="http://creativecommons.org/ns#" xmlns:rdf="http://www.w3.org/1999/02/22-rdf-syntax-ns#" xmlns:svg="http://www.w3.org/2000/svg" xmlns="http://www.w3.org/2000/svg" xmlns:sodipodi="http://sodipodi.sourceforge.net/DTD/sodipodi-0.dtd" xmlns:inkscape="http://www.inkscape.org/namespaces/inkscape" viewBox="0 0 1104.2827 1400.7116250000001" version="1.1" x="0px" y="0px"><g transform="translate(4336.7044,970.51802)"><path style="" d="m -4136.7726,149.00771 c -2.8038,-0.4358 -4.8759,-1.4165 -4.7175,-2.2327 0.2875,-1.4808 7.963,-20.4191 52.8441,-130.385196 27.5034,-67.3881 64.1895,-157.289704 94.621,-231.875004 10.6592,-26.125 26.6971,-65.5 35.6397,-87.5 8.9425,-22 16.4704,-40.2254 16.7286,-40.501 1.0873,-1.1605 20.1048,14.7589 27.7957,23.2677 39.444,43.6382 56.4738,110.2256 48.3112,188.8995 -3.1184,30.0564 -8.7762,53.715304 -20.2128,84.523204 -7.2283,19.4712 -25.7806,57.042 -35.025,70.9298 -17.8906,26.8772 -49.2888,61.6917 -71.0836,78.817796 -29.9987,23.5727 -61.1216,38.5629 -92.8238,44.7084 -12.8446,2.4899 -40.1793,3.1972 -52.0776,1.3475 z m -65.4369,-30.7031 c -30.2825,-22.292696 -53.0698,-60.359096 -63.4114,-105.929396 -6.1879,-27.2668 -8.4315,-64.3811 -5.5378,-91.6104 0.6575,-6.1875 1.7615,-16.6663 2.4533,-23.286204 4.6163,-44.174 36.8825,-123.2981 63.397,-155.4638 2.2668,-2.75 9.1105,-11.1875 15.2082,-18.75 6.0976,-7.5625 17.4971,-19.9385 25.3321,-27.5022 42.5936,-41.1184 90.2675,-64.1478 136.8354,-66.0996 12.5869,-0.5275 31.6185,1.0128 33.1869,2.686 0.4721,0.5037 -5.4811,16.3845 -13.2295,35.2908 -7.7483,18.9062 -32.786,80.2187 -55.6392,136.25 -108.4601,265.920604 -130.3062,319.3995 -130.6048,319.7175 -0.177,0.1884 -3.7725,-2.1978 -7.9902,-5.3027 z m 709.2747,-31.362096 c -53.3941,-7.4716 -108.1072,-26.3637 -144.9897,-50.0641 -69.2133,-44.4758004 -109.4513,-94.9372 -121.2441,-152.048904 -2.3792,-11.5223 -3.8692,-38.3821 -2.2576,-40.696 0.896,-1.2865 12.8695,1.7987 56.6449,14.5956 30.5298,8.9248 112.6024,32.9056 182.3837,53.290604 69.7812,20.3851 139.8125,40.8564 155.625,45.4917 15.8125,4.6354 48.0083,14.0137 71.5463,20.8407 23.538,6.827 42.8036,13.0435996 42.8125,13.8147996 0.01,0.7712 -2.7102,5.5786 -6.0426,10.6832 -17.3109,26.5178004 -39.6395,45.1508004 -73.1535,61.0461004 -23.1328,10.9717 -43.577,16.9997 -72.6348,21.4163 -21.4571,3.2614 -70.5799,4.1642 -88.6901,1.63 z m 182.4122,-172.3715 c -63.9869,-18.800004 -364.1536,-106.541904 -413.75,-120.943504 -9.625,-2.7949 -17.7407,-5.2918 -18.0348,-5.5486 -0.2942,-0.2569 0.7754,-2.8514 2.3768,-5.7656 9.2244,-16.7864 26.7979,-35.8018 45.3625,-49.0847 6.35,-4.5434 18.858,-11.8325 27.7955,-16.198 36.575,-17.8648 71.8442,-25.4334 122.5,-26.2879 36.8346,-0.6213 64.0414,3.2212 102.8585,14.5269 27.9439,8.1389 65.8829,24.274 79.8891,33.9761 2.1986,1.523 9.8124,6.5526 16.9195,11.1768 52.9941,34.4809 92.3694,83.2833 105.7668,131.0894 6.3434,22.635204 8.602,53.855204 3.9411,54.477304 -1.0313,0.1376 -35.0625,-9.5006 -75.625,-21.4182 z m -187.7681,-299.476504 c -44.1204,-5.5227 -88.9739,-30.2616 -127.2069,-70.1608 -11.6234,-12.13 -20.1874,-22.8549 -39.8839,-49.9478 -21.2215,-29.1904 -44.5502,-89.516 -53.333,-137.913 -3.2593,-17.9604 -4.7093,-68.6293 -2.5414,-88.8081 7.1477,-66.5305 34.4623,-119.7824 76.6299,-149.3955 4.9136,-3.4507 9.3042,-5.8421 9.7567,-5.3143 0.4526,0.5279 5.3756,14.1785 10.94,30.3348 5.5644,16.1562 28.1834,81.4062 50.2645,145 22.081,63.5937 56.5045,162.7541 76.4966,220.3564 19.9922,57.6023 36.1265,104.9543 35.8541,105.2268 -1.1851,1.185 -28.7706,1.6487 -36.9766,0.6215 z m 89.2031,-26.5172 c -16.2874,-45.072 -170.581,-491.584 -170.0521,-492.1157 1.733,-1.742 33.1973,-1.4194 44.0385,0.4515 56.7943,9.801 111.8865,49.7786 155.5505,112.8749 11.2677,16.2823 12.1322,17.7006 19.5056,32.0021 22.3112,43.2745 38.7855,98.5702 40.8465,137.0997 2.9831,55.7682 -2.1818,96.6168 -16.9249,133.858 -11.4926,29.0302 -29.7266,55.1551 -49.7237,71.242 -8.5968,6.9158 -18.2088,13.65 -19.4831,13.65 -0.2654,0 -1.9561,-4.0781 -3.7573,-9.0625 z m -788.7986,-120.2945 c -26.2692,-3.7558 -48.7595,-11.3531 -68.8864,-23.2701 -11.7121,-6.9346 -27.2248,-19.4484 -26.5646,-21.429 0.2526,-0.758 19.5518,-14.3736 42.887,-30.2569 23.3352,-15.8832 72.2951,-49.2073 108.7998,-74.0534 36.5046,-24.8462 84.3171,-57.3965 106.25,-72.3341 128.6211,-87.599 179.0776,-121.7995 179.6926,-121.7995 1.0369,0 7.8587,21.9475 9.7132,31.25 2.6764,13.4252 2.0333,48.0516 -1.1832,63.7071 -8.9719,43.6683 -31.1836,86.6299 -66.2646,128.1679 -3.4838,4.125 -8.1895,9.6971 -10.4572,12.3825 -11.4116,13.5139 -45.0985,40.3546 -72.3517,57.6478 -15.4183,9.7836 -47.7708,26.5982 -56.1463,29.181 -2.4062,0.7421 -10.2812,3.3004 -17.5,5.6851 -17.4517,5.7653 -40.1318,11.3525 -56.25,13.8571 -18.2786,2.8403 -56.0589,3.5062 -71.7386,1.2645 z m -130.5151,-102.2055 c -11.9684,-34.4262 -10.9857,-74.028 2.8684,-115.592 9.4138,-28.2426 30.4145,-65.3148 50.8571,-89.7774 4.3468,-5.2015 9.4862,-11.5353 11.4209,-14.0752 13.9934,-18.3702 49.3225,-47.2304 84.385,-68.9339 11.4498,-7.0873 42.0741,-22.6592 48.9723,-24.9014 2.4063,-0.7822 11.9688,-3.9376 21.25,-7.0122 71.103,-23.554 139.311,-21.5176 189.7736,5.6657 9.6069,5.1751 25.0727,16.2911 30.009,21.5688 l 2.9076,3.1087 -34.7826,23.6979 c -41.1975,28.0686 -200.8252,136.7338 -318.7014,216.9533 -46.1553,31.4106 -84.4419,57.1102 -85.0813,57.1102 -0.6394,0 -2.3848,-3.5156 -3.8786,-7.8125 z" fill="#000000"/></g><text x="0" y="1135.5693" fill="#000000" font-size="5px" font-weight="bold" font-family="'Helvetica Neue', Helvetica, Arial-Unicode, Arial, Sans-serif">Created by Hector</text><text x="0" y="1140.5693" fill="#000000" font-size="5px" font-weight="bold" font-family="'Helvetica Neue', Helvetica, Arial-Unicode, Arial, Sans-serif">from the Noun Project</text></svg>